<svg version="1.2" xmlns="http://www.w3.org/2000/svg" viewBox="0 0 32 32" width="32" height="32">
	<title>Novo Projeto</title>
	<style>
		.s0 { fill: #96af0b } 
		.s1 { fill: #79692b } 
	</style>
	<path id="Layer" class="s0" d="m14.6 2c-2 0.2-3.5 0.3-4.7 0.5-1.2 0.2-1.6 0.3-1.8 0.5-0.2 0.1-0.3 0.2-0.2 0.6 0 0.6 0.2 0.7 1.9 1.1 0.8 0.1 1.9 0.4 2.5 0.5 1 0.2 1.2 0.2 1.9 0.2 0.5-0.1 2.2-0.1 3.8-0.2 4.4 0 6 0.1 7.5 0.9 1.3 0.6 1.9 1.4 2.4 3 0.3 1.3 0.4 2.2 0.4 7.7-0.1 4.8-0.1 5.1-0.3 5.7-0.5 1.8-1.3 2.7-3.2 3.3-1.4 0.5-3.2 0.6-7.7 0.7-4.6 0-5.6-0.1-7.1-0.9-0.8-0.4-1.7-1.2-2-1.9-0.3-0.6-0.7-1.7-0.8-2.2-0.1-0.3-0.2-0.5-0.9-1.2-0.5-0.5-1-1-1.2-1.1q-0.6-0.4-1.1 0.1c-0.2 0.3-0.2 0.4-0.2 1.1 0 1.4 0.6 3.6 1.3 4.8 1.4 2.5 3.7 4 6.9 4.5 1.7 0.2 8.2 0.1 10.7-0.2 5.4-0.6 7.9-2.7 8.7-7.2 0.1-0.8 0.2-1.5 0.2-6.2 0-4.7-0.1-5.3-0.2-6.2-0.4-2.2-1-3.8-2.1-5-1.2-1.5-2.8-2.2-5.3-2.7-0.6-0.2-1.4-0.2-4.4-0.2-1.9 0-4.2 0-5 0z"/>
	<path id="Layer" class="s0" d="m0.9 3.8c-0.4 0.1-0.5 0.2-0.5 2.6 0.1 2.1 0.1 2.4 0.3 3.6 0.7 3.5 1.8 5.9 3.8 7.8q2.2 2.2 5.7 2.7c2 0.3 4.1 0 5-0.6l0.2-0.2-0.2-0.2c-0.1-0.2-5-5.5-9.7-10.4q-2.9-3.1-1.4-1.7c0.4 0.3 1.3 1.2 2.1 1.9 0.8 0.7 1.9 1.8 2.6 2.3 0.6 0.6 2.2 2 3.4 3.2 1.3 1.2 2.7 2.5 3.2 2.9 0.5 0.5 0.9 0.8 0.9 0.8 0.1 0 0.1-0.3 0.3-0.7 0.1-0.5 0.1-0.9 0.1-2 0-2.1-0.3-3.7-1.2-5.5-0.7-1.4-1.9-2.8-3.2-3.7-2.2-1.5-6.4-2.6-10.4-2.8-0.5-0.1-0.9-0.1-1 0z"/>
	<path id="Layer" class="s1" d="m21.5 11.3c0 0.1-0.3 0.5-0.7 1-1.1 1.6-2.2 3.3-2.9 4.6-1.4 2.8-2.2 5.9-2.1 8.4v0.7l1.1 0.1c1.6 0 1.5 0.1 1.5-1.2 0-2.7 0.5-5.3 2.4-10.9 0.5-1.5 0.9-2.7 0.9-2.7q0 0-0.1 0-0.1 0-0.1 0z"/>
</svg>